[transcode run]
startedAt: 2026-02-22T05:53:18.186Z
finishedAt: 2026-02-22T05:53:25.373Z
durationSeconds: 7.19
workingDir: /Users/harryscanlan/Documents/Projects/harryhax/node_ffmpeg_rencode_videos

[request payload]
{
  "files": [
    "/Users/harryscanlan/Documents/Projects/harryhax/node_ffmpeg_rencode_videos/smoke-fixtures/h264_videotoolbox-aac-ch2/fixture_004_h264_videotoolbox_7300k_aac_ch2.mp4",
    "/Users/harryscanlan/Documents/Projects/harryhax/node_ffmpeg_rencode_videos/smoke-fixtures/h264_videotoolbox-ac3-ch6/fixture_002_h264_videotoolbox_5200k_ac3_ch6.mp4",
    "/Users/harryscanlan/Documents/Projects/harryhax/node_ffmpeg_rencode_videos/smoke-fixtures/h264_videotoolbox-aac-ch4/fixture_005_h264_videotoolbox_3600k_aac_ch4.mp4",
    "/Users/harryscanlan/Documents/Projects/harryhax/node_ffmpeg_rencode_videos/smoke-fixtures/h264_videotoolbox-aac-ch4/fixture_001_h264_videotoolbox_2700k_aac_ch4.mp4",
    "/Users/harryscanlan/Documents/Projects/harryhax/node_ffmpeg_rencode_videos/smoke-fixtures/h264_videotoolbox-libopus-ch2/fixture_003_h264_videotoolbox_5700k_libopus_ch2.mp4"
  ],
  "videoCodec": "hevc_videotoolbox",
  "audioCodec": "aac",
  "videoBitrate": "4000",
  "audioChannels": "2",
  "deleteOriginal": true,
  "transcodeLocation": "/Users/harryscanlan/Documents/Projects/harryhax/node_ffmpeg_rencode_videos/transcode",
  "pauseBatteryPct": "30",
  "startBatteryPct": "70",
  "saveTranscodeLog": true
}

[queued durations seconds]
[
  15,
  13,
  10,
  11,
  5
]

[input file diagnostics]
[
  {
    "file": "/Users/harryscanlan/Documents/Projects/harryhax/node_ffmpeg_rencode_videos/smoke-fixtures/h264_videotoolbox-aac-ch2/fixture_004_h264_videotoolbox_7300k_aac_ch2.mp4",
    "exists": true,
    "sizeBytes": 13032735,
    "mtime": "2026-02-22T05:53:12.421Z"
  },
  {
    "file": "/Users/harryscanlan/Documents/Projects/harryhax/node_ffmpeg_rencode_videos/smoke-fixtures/h264_videotoolbox-ac3-ch6/fixture_002_h264_videotoolbox_5200k_ac3_ch6.mp4",
    "exists": true,
    "sizeBytes": 9236839,
    "mtime": "2026-02-22T05:53:10.398Z"
  },
  {
    "file": "/Users/harryscanlan/Documents/Projects/harryhax/node_ffmpeg_rencode_videos/smoke-fixtures/h264_videotoolbox-aac-ch4/fixture_005_h264_videotoolbox_3600k_aac_ch4.mp4",
    "exists": true,
    "sizeBytes": 4783508,
    "mtime": "2026-02-22T05:53:13.425Z"
  },
  {
    "file": "/Users/harryscanlan/Documents/Projects/harryhax/node_ffmpeg_rencode_videos/smoke-fixtures/h264_videotoolbox-aac-ch4/fixture_001_h264_videotoolbox_2700k_aac_ch4.mp4",
    "exists": true,
    "sizeBytes": 4010218,
    "mtime": "2026-02-22T05:53:09.168Z"
  },
  {
    "file": "/Users/harryscanlan/Documents/Projects/harryhax/node_ffmpeg_rencode_videos/smoke-fixtures/h264_videotoolbox-libopus-ch2/fixture_003_h264_videotoolbox_5700k_libopus_ch2.mp4",
    "exists": true,
    "sizeBytes": 3698491,
    "mtime": "2026-02-22T05:53:11.002Z"
  }
]

[file attempts]
[
  {
    "file": "/Users/harryscanlan/Documents/Projects/harryhax/node_ffmpeg_rencode_videos/smoke-fixtures/h264_videotoolbox-aac-ch2/fixture_004_h264_videotoolbox_7300k_aac_ch2.mp4",
    "status": "success",
    "ffmpegCommand": "ffmpeg -y -i /Users/harryscanlan/Documents/Projects/harryhax/node_ffmpeg_rencode_videos/transcode/fixture_004_h264_videotoolbox_7300k_aac_ch2.mp4 -c:v hevc_videotoolbox -b:v 4000k -c:a aac -ac 2 /Users/harryscanlan/Documents/Projects/harryhax/node_ffmpeg_rencode_videos/transcode/fixture_004_h264_videotoolbox_7300k_aac_ch2.transcoded.mp4",
    "ffmpegStdout": "",
    "ffmpegStderr": "ffmpeg version 8.0.1 Copyright (c) 2000-2025 the FFmpeg developers\n  built with Apple clang version 17.0.0 (clang-1700.6.3.2)\n  configuration: --prefix=/opt/homebrew/Cellar/ffmpeg/8.0.1_4 --enable-shared --enable-pthreads --enable-version3 --cc=clang --host-cflags= --host-ldflags= --enable-ffplay --enable-gpl --enable-libsvtav1 --enable-libopus --enable-libx264 --enable-libmp3lame --enable-libdav1d --enable-libvpx --enable-libx265 --enable-openssl --enable-videotoolbox --enable-audiotoolbox --enable-neon\n  libavutil      60.  8.100 / 60.  8.100\n  libavcodec     62. 11.100 / 62. 11.100\n  libavformat    62.  3.100 / 62.  3.100\n  libavdevice    62.  1.100 / 62.  1.100\n  libavfilter    11.  4.100 / 11.  4.100\n  libswscale      9.  1.100 /  9.  1.100\n  libswresample   6.  1.100 /  6.  1.100\nInput #0, mov,mp4,m4a,3gp,3g2,mj2, from '/Users/harryscanlan/Documents/Projects/harryhax/node_ffmpeg_rencode_videos/transcode/fixture_004_h264_videotoolbox_7300k_aac_ch2.mp4':\n  Metadata:\n    major_brand     : isom\n    minor_version   : 512\n    compatible_brands: isomiso2avc1mp41\n    encoder         : Lavf62.3.100\n  Duration: 00:00:15.00, start: 0.000000, bitrate: 6950 kb/s\n  Stream #0:0[0x1](und): Video: h264 (High) (avc1 / 0x31637661), yuv420p(progressive), 1280x720, 6814 kb/s, SAR 1:1 DAR 16:9, 30 fps, 30 tbr, 15360 tbn (default)\n    Metadata:\n      handler_name    : VideoHandler\n      vendor_id       : [0][0][0][0]\n      encoder         : Lavc62.11.100 h264_videotoolbox\n  Stream #0:1[0x2](und): Audio: aac (LC) (mp4a / 0x6134706D), 48000 Hz, stereo, fltp, 128 kb/s (default)\n    Metadata:\n      handler_name    : SoundHandler\n      vendor_id       : [0][0][0][0]\nStream mapping:\n  Stream #0:0 -> #0:0 (h264 (native) -> hevc (hevc_videotoolbox))\n  Stream #0:1 -> #0:1 (aac (native) -> aac (native))\nPress [q] to stop, [?] for help\nOutput #0, mp4, to '/Users/harryscanlan/Documents/Projects/harryhax/node_ffmpeg_rencode_videos/transcode/fixture_004_h264_videotoolbox_7300k_aac_ch2.transcoded.mp4':\n  Metadata:\n    major_brand     : isom\n    minor_version   : 512\n    compatible_brands: isomiso2avc1mp41\n    encoder         : Lavf62.3.100\n  Stream #0:0(und): Video: hevc (hev1 / 0x31766568), yuv420p(tv, progressive), 1280x720 [SAR 1:1 DAR 16:9], q=2-31, 4000 kb/s, 30 fps, 15360 tbn (default)\n    Metadata:\n      encoder         : Lavc62.11.100 hevc_videotoolbox\n      handler_name    : VideoHandler\n      vendor_id       : [0][0][0][0]\n  Stream #0:1(und): Audio: aac (LC) (mp4a / 0x6134706D), 48000 Hz, stereo, fltp, 128 kb/s (default)\n    Metadata:\n      encoder         : Lavc62.11.100 aac\n      handler_name    : SoundHandler\n      vendor_id       : [0][0][0][0]\nframe=   95 fps=0.0 q=-0.0 size=    1536KiB time=00:00:03.13 bitrate=4015.9kbits/s speed= 6.2x elapsed=0:00:00.50    \rframe=  250 fps=248 q=-0.0 size=    4096KiB time=00:00:08.30 bitrate=4042.7kbits/s speed=8.22x elapsed=0:00:01.00    \rframe=  406 fps=268 q=-0.0 size=    6656KiB time=00:00:13.50 bitrate=4039.0kbits/s speed=8.92x elapsed=0:00:01.51    \r[out#0/mp4 @ 0x754c28300] video:7413KiB audio:235KiB subtitle:0KiB other streams:0KiB global headers:0KiB muxing overhead: 0.186026%\nframe=  450 fps=272 q=-0.0 Lsize=    7662KiB time=00:00:14.96 bitrate=4194.0kbits/s speed=9.03x elapsed=0:00:01.65    \n[aac @ 0x754d18380] Qavg: 502.905\n",
    "outputPath": "/Users/harryscanlan/Documents/Projects/harryhax/node_ffmpeg_rencode_videos/smoke-fixtures/h264_videotoolbox-aac-ch2/fixture_004_h264_videotoolbox_7300k_aac_ch2.transcoded.mp4",
    "perFileLogPath": "/Users/harryscanlan/Documents/Projects/harryhax/node_ffmpeg_rencode_videos/smoke-fixtures/h264_videotoolbox-aac-ch2/fixture_004_h264_videotoolbox_7300k_aac_ch2.transcoded.log"
  },
  {
    "file": "/Users/harryscanlan/Documents/Projects/harryhax/node_ffmpeg_rencode_videos/smoke-fixtures/h264_videotoolbox-ac3-ch6/fixture_002_h264_videotoolbox_5200k_ac3_ch6.mp4",
    "status": "success",
    "ffmpegCommand": "ffmpeg -y -i /Users/harryscanlan/Documents/Projects/harryhax/node_ffmpeg_rencode_videos/transcode/fixture_002_h264_videotoolbox_5200k_ac3_ch6.mp4 -c:v hevc_videotoolbox -b:v 4000k -c:a aac -ac 2 /Users/harryscanlan/Documents/Projects/harryhax/node_ffmpeg_rencode_videos/transcode/fixture_002_h264_videotoolbox_5200k_ac3_ch6.transcoded.mp4",
    "ffmpegStdout": "",
    "ffmpegStderr": "ffmpeg version 8.0.1 Copyright (c) 2000-2025 the FFmpeg developers\n  built with Apple clang version 17.0.0 (clang-1700.6.3.2)\n  configuration: --prefix=/opt/homebrew/Cellar/ffmpeg/8.0.1_4 --enable-shared --enable-pthreads --enable-version3 --cc=clang --host-cflags= --host-ldflags= --enable-ffplay --enable-gpl --enable-libsvtav1 --enable-libopus --enable-libx264 --enable-libmp3lame --enable-libdav1d --enable-libvpx --enable-libx265 --enable-openssl --enable-videotoolbox --enable-audiotoolbox --enable-neon\n  libavutil      60.  8.100 / 60.  8.100\n  libavcodec     62. 11.100 / 62. 11.100\n  libavformat    62.  3.100 / 62.  3.100\n  libavdevice    62.  1.100 / 62.  1.100\n  libavfilter    11.  4.100 / 11.  4.100\n  libswscale      9.  1.100 /  9.  1.100\n  libswresample   6.  1.100 /  6.  1.100\nInput #0, mov,mp4,m4a,3gp,3g2,mj2, from '/Users/harryscanlan/Documents/Projects/harryhax/node_ffmpeg_rencode_videos/transcode/fixture_002_h264_videotoolbox_5200k_ac3_ch6.mp4':\n  Metadata:\n    major_brand     : isom\n    minor_version   : 512\n    compatible_brands: isomdby1iso2avc1mp41\n    encoder         : Lavf62.3.100\n  Duration: 00:00:13.00, start: 0.000000, bitrate: 5684 kb/s\n  Stream #0:0[0x1](und): Video: h264 (High) (avc1 / 0x31637661), yuv420p(progressive), 1280x720, 5231 kb/s, SAR 1:1 DAR 16:9, 30 fps, 30 tbr, 15360 tbn (default)\n    Metadata:\n      handler_name    : VideoHandler\n      vendor_id       : [0][0][0][0]\n      encoder         : Lavc62.11.100 h264_videotoolbox\n  Stream #0:1[0x2](und): Audio: ac3 (ac-3 / 0x332D6361), 48000 Hz, 5.1(side), fltp, 448 kb/s (default)\n    Metadata:\n      handler_name    : SoundHandler\n      vendor_id       : [0][0][0][0]\n    Side data:\n      audio service type: main\nStream mapping:\n  Stream #0:0 -> #0:0 (h264 (native) -> hevc (hevc_videotoolbox))\n  Stream #0:1 -> #0:1 (ac3 (native) -> aac (native))\nPress [q] to stop, [?] for help\nOutput #0, mp4, to '/Users/harryscanlan/Documents/Projects/harryhax/node_ffmpeg_rencode_videos/transcode/fixture_002_h264_videotoolbox_5200k_ac3_ch6.transcoded.mp4':\n  Metadata:\n    major_brand     : isom\n    minor_version   : 512\n    compatible_brands: isomdby1iso2avc1mp41\n    encoder         : Lavf62.3.100\n  Stream #0:0(und): Video: hevc (hev1 / 0x31766568), yuv420p(tv, progressive), 1280x720 [SAR 1:1 DAR 16:9], q=2-31, 4000 kb/s, 30 fps, 15360 tbn (default)\n    Metadata:\n      encoder         : Lavc62.11.100 hevc_videotoolbox\n      handler_name    : VideoHandler\n      vendor_id       : [0][0][0][0]\n  Stream #0:1(und): Audio: aac (LC) (mp4a / 0x6134706D), 48000 Hz, stereo, fltp, 128 kb/s (default)\n    Metadata:\n      encoder         : Lavc62.11.100 aac\n      handler_name    : SoundHandler\n      vendor_id       : [0][0][0][0]\n    Side data:\n      audio service type: main\nframe=   91 fps=0.0 q=-0.0 size=    1536KiB time=00:00:03.00 bitrate=4194.4kbits/s speed=5.94x elapsed=0:00:00.50    \rframe=  246 fps=244 q=-0.0 size=    4096KiB time=00:00:08.16 bitrate=4108.7kbits/s speed=8.09x elapsed=0:00:01.00    \r[out#0/mp4 @ 0xba104c300] video:6403KiB audio:204KiB subtitle:0KiB other streams:0KiB global headers:0KiB muxing overhead: 0.189811%\nframe=  390 fps=264 q=-0.0 Lsize=    6619KiB time=00:00:12.96 bitrate=4181.8kbits/s speed=8.79x elapsed=0:00:01.47    \n[aac @ 0xba112c380] Qavg: 753.095\n",
    "outputPath": "/Users/harryscanlan/Documents/Projects/harryhax/node_ffmpeg_rencode_videos/smoke-fixtures/h264_videotoolbox-ac3-ch6/fixture_002_h264_videotoolbox_5200k_ac3_ch6.transcoded.mp4",
    "perFileLogPath": "/Users/harryscanlan/Documents/Projects/harryhax/node_ffmpeg_rencode_videos/smoke-fixtures/h264_videotoolbox-ac3-ch6/fixture_002_h264_videotoolbox_5200k_ac3_ch6.transcoded.log"
  },
  {
    "file": "/Users/harryscanlan/Documents/Projects/harryhax/node_ffmpeg_rencode_videos/smoke-fixtures/h264_videotoolbox-aac-ch4/fixture_005_h264_videotoolbox_3600k_aac_ch4.mp4",
    "status": "success",
    "ffmpegCommand": "ffmpeg -y -i /Users/harryscanlan/Documents/Projects/harryhax/node_ffmpeg_rencode_videos/transcode/fixture_005_h264_videotoolbox_3600k_aac_ch4.mp4 -c:v hevc_videotoolbox -b:v 4000k -c:a aac -ac 2 /Users/harryscanlan/Documents/Projects/harryhax/node_ffmpeg_rencode_videos/transcode/fixture_005_h264_videotoolbox_3600k_aac_ch4.transcoded.mp4",
    "ffmpegStdout": "",
    "ffmpegStderr": "ffmpeg version 8.0.1 Copyright (c) 2000-2025 the FFmpeg developers\n  built with Apple clang version 17.0.0 (clang-1700.6.3.2)\n  configuration: --prefix=/opt/homebrew/Cellar/ffmpeg/8.0.1_4 --enable-shared --enable-pthreads --enable-version3 --cc=clang --host-cflags= --host-ldflags= --enable-ffplay --enable-gpl --enable-libsvtav1 --enable-libopus --enable-libx264 --enable-libmp3lame --enable-libdav1d --enable-libvpx --enable-libx265 --enable-openssl --enable-videotoolbox --enable-audiotoolbox --enable-neon\n  libavutil      60.  8.100 / 60.  8.100\n  libavcodec     62. 11.100 / 62. 11.100\n  libavformat    62.  3.100 / 62.  3.100\n  libavdevice    62.  1.100 / 62.  1.100\n  libavfilter    11.  4.100 / 11.  4.100\n  libswscale      9.  1.100 /  9.  1.100\n  libswresample   6.  1.100 /  6.  1.100\nInput #0, mov,mp4,m4a,3gp,3g2,mj2, from '/Users/harryscanlan/Documents/Projects/harryhax/node_ffmpeg_rencode_videos/transcode/fixture_005_h264_videotoolbox_3600k_aac_ch4.mp4':\n  Metadata:\n    major_brand     : isom\n    minor_version   : 512\n    compatible_brands: isomiso2avc1mp41\n    encoder         : Lavf62.3.100\n  Duration: 00:00:10.00, start: 0.000000, bitrate: 3826 kb/s\n  Stream #0:0[0x1](und): Video: h264 (High) (avc1 / 0x31637661), yuv420p(progressive), 1280x720, 3635 kb/s, SAR 1:1 DAR 16:9, 30 fps, 30 tbr, 15360 tbn (default)\n    Metadata:\n      handler_name    : VideoHandler\n      vendor_id       : [0][0][0][0]\n      encoder         : Lavc62.11.100 h264_videotoolbox\n  Stream #0:1[0x2](und): Audio: aac (LC) (mp4a / 0x6134706D), 48000 Hz, 4.0, fltp, 183 kb/s (default)\n    Metadata:\n      handler_name    : SoundHandler\n      vendor_id       : [0][0][0][0]\nStream mapping:\n  Stream #0:0 -> #0:0 (h264 (native) -> hevc (hevc_videotoolbox))\n  Stream #0:1 -> #0:1 (aac (native) -> aac (native))\nPress [q] to stop, [?] for help\nOutput #0, mp4, to '/Users/harryscanlan/Documents/Projects/harryhax/node_ffmpeg_rencode_videos/transcode/fixture_005_h264_videotoolbox_3600k_aac_ch4.transcoded.mp4':\n  Metadata:\n    major_brand     : isom\n    minor_version   : 512\n    compatible_brands: isomiso2avc1mp41\n    encoder         : Lavf62.3.100\n  Stream #0:0(und): Video: hevc (hev1 / 0x31766568), yuv420p(tv, progressive), 1280x720 [SAR 1:1 DAR 16:9], q=2-31, 4000 kb/s, 30 fps, 15360 tbn (default)\n    Metadata:\n      encoder         : Lavc62.11.100 hevc_videotoolbox\n      handler_name    : VideoHandler\n      vendor_id       : [0][0][0][0]\n  Stream #0:1(und): Audio: aac (LC) (mp4a / 0x6134706D), 48000 Hz, stereo, fltp, 128 kb/s (default)\n    Metadata:\n      encoder         : Lavc62.11.100 aac\n      handler_name    : SoundHandler\n      vendor_id       : [0][0][0][0]\nframe=   90 fps=0.0 q=-0.0 size=    1536KiB time=00:00:02.96 bitrate=4241.5kbits/s speed=5.92x elapsed=0:00:00.50    \rframe=  244 fps=243 q=-0.0 size=    4096KiB time=00:00:08.10 bitrate=4142.6kbits/s speed=8.08x elapsed=0:00:01.00    \r[out#0/mp4 @ 0x852c18300] video:4930KiB audio:157KiB subtitle:0KiB other streams:0KiB global headers:0KiB muxing overhead: 0.195911%\nframe=  300 fps=254 q=-0.0 Lsize=    5097KiB time=00:00:09.96 bitrate=4189.3kbits/s speed=8.43x elapsed=0:00:01.18    \n[aac @ 0x852824380] Qavg: 888.073\n",
    "outputPath": "/Users/harryscanlan/Documents/Projects/harryhax/node_ffmpeg_rencode_videos/smoke-fixtures/h264_videotoolbox-aac-ch4/fixture_005_h264_videotoolbox_3600k_aac_ch4.transcoded.mp4",
    "perFileLogPath": "/Users/harryscanlan/Documents/Projects/harryhax/node_ffmpeg_rencode_videos/smoke-fixtures/h264_videotoolbox-aac-ch4/fixture_005_h264_videotoolbox_3600k_aac_ch4.transcoded.log"
  },
  {
    "file": "/Users/harryscanlan/Documents/Projects/harryhax/node_ffmpeg_rencode_videos/smoke-fixtures/h264_videotoolbox-aac-ch4/fixture_001_h264_videotoolbox_2700k_aac_ch4.mp4",
    "status": "success",
    "ffmpegCommand": "ffmpeg -y -i /Users/harryscanlan/Documents/Projects/harryhax/node_ffmpeg_rencode_videos/transcode/fixture_001_h264_videotoolbox_2700k_aac_ch4.mp4 -c:v hevc_videotoolbox -b:v 4000k -c:a aac -ac 2 /Users/harryscanlan/Documents/Projects/harryhax/node_ffmpeg_rencode_videos/transcode/fixture_001_h264_videotoolbox_2700k_aac_ch4.transcoded.mp4",
    "ffmpegStdout": "",
    "ffmpegStderr": "ffmpeg version 8.0.1 Copyright (c) 2000-2025 the FFmpeg developers\n  built with Apple clang version 17.0.0 (clang-1700.6.3.2)\n  configuration: --prefix=/opt/homebrew/Cellar/ffmpeg/8.0.1_4 --enable-shared --enable-pthreads --enable-version3 --cc=clang --host-cflags= --host-ldflags= --enable-ffplay --enable-gpl --enable-libsvtav1 --enable-libopus --enable-libx264 --enable-libmp3lame --enable-libdav1d --enable-libvpx --enable-libx265 --enable-openssl --enable-videotoolbox --enable-audiotoolbox --enable-neon\n  libavutil      60.  8.100 / 60.  8.100\n  libavcodec     62. 11.100 / 62. 11.100\n  libavformat    62.  3.100 / 62.  3.100\n  libavdevice    62.  1.100 / 62.  1.100\n  libavfilter    11.  4.100 / 11.  4.100\n  libswscale      9.  1.100 /  9.  1.100\n  libswresample   6.  1.100 /  6.  1.100\nInput #0, mov,mp4,m4a,3gp,3g2,mj2, from '/Users/harryscanlan/Documents/Projects/harryhax/node_ffmpeg_rencode_videos/transcode/fixture_001_h264_videotoolbox_2700k_aac_ch4.mp4':\n  Metadata:\n    major_brand     : isom\n    minor_version   : 512\n    compatible_brands: isomiso2avc1mp41\n    encoder         : Lavf62.3.100\n  Duration: 00:00:11.00, start: 0.000000, bitrate: 2916 kb/s\n  Stream #0:0[0x1](und): Video: h264 (High) (avc1 / 0x31637661), yuv420p(progressive), 1280x720, 2724 kb/s, SAR 1:1 DAR 16:9, 30 fps, 30 tbr, 15360 tbn (default)\n    Metadata:\n      handler_name    : VideoHandler\n      vendor_id       : [0][0][0][0]\n      encoder         : Lavc62.11.100 h264_videotoolbox\n  Stream #0:1[0x2](und): Audio: aac (LC) (mp4a / 0x6134706D), 48000 Hz, 4.0, fltp, 183 kb/s (default)\n    Metadata:\n      handler_name    : SoundHandler\n      vendor_id       : [0][0][0][0]\nStream mapping:\n  Stream #0:0 -> #0:0 (h264 (native) -> hevc (hevc_videotoolbox))\n  Stream #0:1 -> #0:1 (aac (native) -> aac (native))\nPress [q] to stop, [?] for help\nOutput #0, mp4, to '/Users/harryscanlan/Documents/Projects/harryhax/node_ffmpeg_rencode_videos/transcode/fixture_001_h264_videotoolbox_2700k_aac_ch4.transcoded.mp4':\n  Metadata:\n    major_brand     : isom\n    minor_version   : 512\n    compatible_brands: isomiso2avc1mp41\n    encoder         : Lavf62.3.100\n  Stream #0:0(und): Video: hevc (hev1 / 0x31766568), yuv420p(tv, progressive), 1280x720 [SAR 1:1 DAR 16:9], q=2-31, 4000 kb/s, 30 fps, 15360 tbn (default)\n    Metadata:\n      encoder         : Lavc62.11.100 hevc_videotoolbox\n      handler_name    : VideoHandler\n      vendor_id       : [0][0][0][0]\n  Stream #0:1(und): Audio: aac (LC) (mp4a / 0x6134706D), 48000 Hz, stereo, fltp, 128 kb/s (default)\n    Metadata:\n      encoder         : Lavc62.11.100 aac\n      handler_name    : SoundHandler\n      vendor_id       : [0][0][0][0]\nframe=   90 fps=0.0 q=-0.0 size=    1536KiB time=00:00:02.96 bitrate=4241.5kbits/s speed=5.88x elapsed=0:00:00.50    \rframe=  245 fps=243 q=-0.0 size=    4096KiB time=00:00:08.13 bitrate=4125.6kbits/s speed=8.06x elapsed=0:00:01.00    \r[out#0/mp4 @ 0xbf883c300] video:5425KiB audio:172KiB subtitle:0KiB other streams:0KiB global headers:0KiB muxing overhead: 0.193252%\nframe=  330 fps=257 q=-0.0 Lsize=    5608KiB time=00:00:10.96 bitrate=4189.4kbits/s speed=8.55x elapsed=0:00:01.28    \n[aac @ 0xbf8904380] Qavg: 947.384\n",
    "outputPath": "/Users/harryscanlan/Documents/Projects/harryhax/node_ffmpeg_rencode_videos/smoke-fixtures/h264_videotoolbox-aac-ch4/fixture_001_h264_videotoolbox_2700k_aac_ch4.transcoded.mp4",
    "perFileLogPath": "/Users/harryscanlan/Documents/Projects/harryhax/node_ffmpeg_rencode_videos/smoke-fixtures/h264_videotoolbox-aac-ch4/fixture_001_h264_videotoolbox_2700k_aac_ch4.transcoded.log"
  },
  {
    "file": "/Users/harryscanlan/Documents/Projects/harryhax/node_ffmpeg_rencode_videos/smoke-fixtures/h264_videotoolbox-libopus-ch2/fixture_003_h264_videotoolbox_5700k_libopus_ch2.mp4",
    "status": "success",
    "ffmpegCommand": "ffmpeg -y -i /Users/harryscanlan/Documents/Projects/harryhax/node_ffmpeg_rencode_videos/transcode/fixture_003_h264_videotoolbox_5700k_libopus_ch2.mp4 -c:v hevc_videotoolbox -b:v 4000k -c:a aac -ac 2 /Users/harryscanlan/Documents/Projects/harryhax/node_ffmpeg_rencode_videos/transcode/fixture_003_h264_videotoolbox_5700k_libopus_ch2.transcoded.mp4",
    "ffmpegStdout": "",
    "ffmpegStderr": "ffmpeg version 8.0.1 Copyright (c) 2000-2025 the FFmpeg developers\n  built with Apple clang version 17.0.0 (clang-1700.6.3.2)\n  configuration: --prefix=/opt/homebrew/Cellar/ffmpeg/8.0.1_4 --enable-shared --enable-pthreads --enable-version3 --cc=clang --host-cflags= --host-ldflags= --enable-ffplay --enable-gpl --enable-libsvtav1 --enable-libopus --enable-libx264 --enable-libmp3lame --enable-libdav1d --enable-libvpx --enable-libx265 --enable-openssl --enable-videotoolbox --enable-audiotoolbox --enable-neon\n  libavutil      60.  8.100 / 60.  8.100\n  libavcodec     62. 11.100 / 62. 11.100\n  libavformat    62.  3.100 / 62.  3.100\n  libavdevice    62.  1.100 / 62.  1.100\n  libavfilter    11.  4.100 / 11.  4.100\n  libswscale      9.  1.100 /  9.  1.100\n  libswresample   6.  1.100 /  6.  1.100\nInput #0, mov,mp4,m4a,3gp,3g2,mj2, from '/Users/harryscanlan/Documents/Projects/harryhax/node_ffmpeg_rencode_videos/transcode/fixture_003_h264_videotoolbox_5700k_libopus_ch2.mp4':\n  Metadata:\n    major_brand     : isom\n    minor_version   : 512\n    compatible_brands: isomiso2avc1mp41\n    encoder         : Lavf62.3.100\n  Duration: 00:00:05.00, start: 0.000000, bitrate: 5917 kb/s\n  Stream #0:0[0x1](und): Video: h264 (High) (avc1 / 0x31637661), yuv420p(progressive), 1280x720, 5783 kb/s, SAR 1:1 DAR 16:9, 30 fps, 30 tbr, 15360 tbn (default)\n    Metadata:\n      handler_name    : VideoHandler\n      vendor_id       : [0][0][0][0]\n      encoder         : Lavc62.11.100 h264_videotoolbox\n  Stream #0:1[0x2](und): Audio: opus (Opus / 0x7375704F), 48000 Hz, stereo, fltp, 125 kb/s (default)\n    Metadata:\n      handler_name    : SoundHandler\n      vendor_id       : [0][0][0][0]\nStream mapping:\n  Stream #0:0 -> #0:0 (h264 (native) -> hevc (hevc_videotoolbox))\n  Stream #0:1 -> #0:1 (opus (native) -> aac (native))\nPress [q] to stop, [?] for help\nOutput #0, mp4, to '/Users/harryscanlan/Documents/Projects/harryhax/node_ffmpeg_rencode_videos/transcode/fixture_003_h264_videotoolbox_5700k_libopus_ch2.transcoded.mp4':\n  Metadata:\n    major_brand     : isom\n    minor_version   : 512\n    compatible_brands: isomiso2avc1mp41\n    encoder         : Lavf62.3.100\n  Stream #0:0(und): Video: hevc (hev1 / 0x31766568), yuv420p(tv, progressive), 1280x720 [SAR 1:1 DAR 16:9], q=2-31, 4000 kb/s, 30 fps, 15360 tbn (default)\n    Metadata:\n      encoder         : Lavc62.11.100 hevc_videotoolbox\n      handler_name    : VideoHandler\n      vendor_id       : [0][0][0][0]\n  Stream #0:1(und): Audio: aac (LC) (mp4a / 0x6134706D), 48000 Hz, stereo, fltp, 128 kb/s (default)\n    Metadata:\n      encoder         : Lavc62.11.100 aac\n      handler_name    : SoundHandler\n      vendor_id       : [0][0][0][0]\nframe=   92 fps=0.0 q=-0.0 size=    1536KiB time=00:00:03.03 bitrate=4148.3kbits/s speed=6.01x elapsed=0:00:00.50    \r[out#0/mp4 @ 0xa0a810300] video:2476KiB audio:79KiB subtitle:0KiB other streams:0KiB global headers:0KiB muxing overhead: 0.224038%\nframe=  150 fps=0.0 q=-0.0 Lsize=    2560KiB time=00:00:04.96 bitrate=4223.3kbits/s speed=7.19x elapsed=0:00:00.69    \n[aac @ 0xa0ac5c380] Qavg: 628.469\n",
    "outputPath": "/Users/harryscanlan/Documents/Projects/harryhax/node_ffmpeg_rencode_videos/smoke-fixtures/h264_videotoolbox-libopus-ch2/fixture_003_h264_videotoolbox_5700k_libopus_ch2.transcoded.mp4",
    "perFileLogPath": "/Users/harryscanlan/Documents/Projects/harryhax/node_ffmpeg_rencode_videos/smoke-fixtures/h264_videotoolbox-libopus-ch2/fixture_003_h264_videotoolbox_5700k_libopus_ch2.transcoded.log"
  }
]

[results]
[
  {
    "file": "/Users/harryscanlan/Documents/Projects/harryhax/node_ffmpeg_rencode_videos/smoke-fixtures/h264_videotoolbox-aac-ch2/fixture_004_h264_videotoolbox_7300k_aac_ch2.mp4",
    "output": "/Users/harryscanlan/Documents/Projects/harryhax/node_ffmpeg_rencode_videos/smoke-fixtures/h264_videotoolbox-aac-ch2/fixture_004_h264_videotoolbox_7300k_aac_ch2.transcoded.mp4",
    "ok": true,
    "logPath": "/Users/harryscanlan/Documents/Projects/harryhax/node_ffmpeg_rencode_videos/smoke-fixtures/h264_videotoolbox-aac-ch2/fixture_004_h264_videotoolbox_7300k_aac_ch2.transcoded.log",
    "sourceSizeBytes": null,
    "outputSizeBytes": 7846263,
    "bytesSaved": null
  },
  {
    "file": "/Users/harryscanlan/Documents/Projects/harryhax/node_ffmpeg_rencode_videos/smoke-fixtures/h264_videotoolbox-ac3-ch6/fixture_002_h264_videotoolbox_5200k_ac3_ch6.mp4",
    "output": "/Users/harryscanlan/Documents/Projects/harryhax/node_ffmpeg_rencode_videos/smoke-fixtures/h264_videotoolbox-ac3-ch6/fixture_002_h264_videotoolbox_5200k_ac3_ch6.transcoded.mp4",
    "ok": true,
    "logPath": "/Users/harryscanlan/Documents/Projects/harryhax/node_ffmpeg_rencode_videos/smoke-fixtures/h264_videotoolbox-ac3-ch6/fixture_002_h264_videotoolbox_5200k_ac3_ch6.transcoded.log",
    "sourceSizeBytes": null,
    "outputSizeBytes": 6777980,
    "bytesSaved": null
  },
  {
    "file": "/Users/harryscanlan/Documents/Projects/harryhax/node_ffmpeg_rencode_videos/smoke-fixtures/h264_videotoolbox-aac-ch4/fixture_005_h264_videotoolbox_3600k_aac_ch4.mp4",
    "output": "/Users/harryscanlan/Documents/Projects/harryhax/node_ffmpeg_rencode_videos/smoke-fixtures/h264_videotoolbox-aac-ch4/fixture_005_h264_videotoolbox_3600k_aac_ch4.transcoded.mp4",
    "ok": true,
    "logPath": "/Users/harryscanlan/Documents/Projects/harryhax/node_ffmpeg_rencode_videos/smoke-fixtures/h264_videotoolbox-aac-ch4/fixture_005_h264_videotoolbox_3600k_aac_ch4.transcoded.log",
    "sourceSizeBytes": null,
    "outputSizeBytes": 5219214,
    "bytesSaved": null
  },
  {
    "file": "/Users/harryscanlan/Documents/Projects/harryhax/node_ffmpeg_rencode_videos/smoke-fixtures/h264_videotoolbox-aac-ch4/fixture_001_h264_videotoolbox_2700k_aac_ch4.mp4",
    "output": "/Users/harryscanlan/Documents/Projects/harryhax/node_ffmpeg_rencode_videos/smoke-fixtures/h264_videotoolbox-aac-ch4/fixture_001_h264_videotoolbox_2700k_aac_ch4.transcoded.mp4",
    "ok": true,
    "logPath": "/Users/harryscanlan/Documents/Projects/harryhax/node_ffmpeg_rencode_videos/smoke-fixtures/h264_videotoolbox-aac-ch4/fixture_001_h264_videotoolbox_2700k_aac_ch4.transcoded.log",
    "sourceSizeBytes": null,
    "outputSizeBytes": 5742961,
    "bytesSaved": null
  },
  {
    "file": "/Users/harryscanlan/Documents/Projects/harryhax/node_ffmpeg_rencode_videos/smoke-fixtures/h264_videotoolbox-libopus-ch2/fixture_003_h264_videotoolbox_5700k_libopus_ch2.mp4",
    "output": "/Users/harryscanlan/Documents/Projects/harryhax/node_ffmpeg_rencode_videos/smoke-fixtures/h264_videotoolbox-libopus-ch2/fixture_003_h264_videotoolbox_5700k_libopus_ch2.transcoded.mp4",
    "ok": true,
    "logPath": "/Users/harryscanlan/Documents/Projects/harryhax/node_ffmpeg_rencode_videos/smoke-fixtures/h264_videotoolbox-libopus-ch2/fixture_003_h264_videotoolbox_5700k_libopus_ch2.transcoded.log",
    "sourceSizeBytes": null,
    "outputSizeBytes": 2621939,
    "bytesSaved": null
  }
]

[savings summary]
{
  "filesTranscoded": 5,
  "attemptedFiles": 5,
  "failedFiles": 0,
  "sourceBytes": 0,
  "outputBytes": 0,
  "savedBytes": 0,
  "successRatePct": 100,
  "avgReductionPct": 0,
  "startedAt": "2026-02-22T05:52:51.541Z"
}
